HIERARCHY
ROOT joint_0
{
	OFFSET 0.000000 0.000000 0.000000
	CHANNELS 6 Xposition Yposition Zposition Zrotation Yrotation Xrotation 
	JOINT joint_1
	{
		OFFSET 0.587158 0.057678 95.682007
		CHANNELS 3 Zrotation Yrotation Xrotation
		JOINT joint_2
		{
			OFFSET -7.116699 -0.219910 87.157959
			CHANNELS 3 Zrotation Yrotation Xrotation
			JOINT joint_3
			{
				OFFSET -5.892822 -0.290222 87.151001
				CHANNELS 3 Zrotation Yrotation Xrotation
				JOINT joint_4
				{
					OFFSET 5.544678 -0.099609 123.768066
					CHANNELS 3 Zrotation Yrotation Xrotation
					JOINT joint_5
					{
						OFFSET 41.981201 4.519775 84.257935
						CHANNELS 3 Zrotation Yrotation Xrotation
						End Site
						{
							OFFSET 0.000000 0.000000 0.000000
						}
					}
				}
				JOINT joint_6
				{
					OFFSET 3.940918 -26.976501 69.308105
					CHANNELS 3 Zrotation Yrotation Xrotation
					JOINT joint_7
					{
						OFFSET 4.776123 -152.592468 -16.842041
						CHANNELS 3 Zrotation Yrotation Xrotation
						JOINT joint_8
						{
							OFFSET 54.421875 -30.424072 -248.864014
							CHANNELS 3 Zrotation Yrotation Xrotation
							JOINT joint_9
							{
								OFFSET 42.120117 -33.387878 -236.524963
								CHANNELS 3 Zrotation Yrotation Xrotation
								End Site
								{
									OFFSET 0.000000 0.000000 0.000000
								}
							}
						}
					}
				}
				JOINT joint_10
				{
					OFFSET 2.312012 26.904114 69.425049
					CHANNELS 3 Zrotation Yrotation Xrotation
					JOINT joint_11
					{
						OFFSET 0.971436 152.197815 -20.626953
						CHANNELS 3 Zrotation Yrotation Xrotation
						JOINT joint_12
						{
							OFFSET 49.954102 28.991455 -249.970093
							CHANNELS 3 Zrotation Yrotation Xrotation
							JOINT joint_13
							{
								OFFSET 48.146973 19.598389 -236.919922
								CHANNELS 3 Zrotation Yrotation Xrotation
								End Site
								{
									OFFSET 0.000000 0.000000 0.000000
								}
							}
						}
					}
				}
			}
		}
	}
	JOINT joint_14
	{
		OFFSET 16.305664 -89.442932 -108.224976
		CHANNELS 3 Zrotation Yrotation Xrotation
		JOINT joint_15
		{
			OFFSET -22.282471 13.437134 -412.904968
			CHANNELS 3 Zrotation Yrotation Xrotation
			JOINT joint_16
			{
				OFFSET -45.426025 14.484802 -445.892029
				CHANNELS 3 Zrotation Yrotation Xrotation
				JOINT joint_17
				{
					OFFSET 173.389404 -9.944031 -76.473001
					CHANNELS 3 Zrotation Yrotation Xrotation
					End Site
					{
						OFFSET 0.000000 0.000000 0.000000
					}
				}
			}
		}
	}
	JOINT joint_18
	{
		OFFSET 13.392822 89.408875 -108.653992
		CHANNELS 3 Zrotation Yrotation Xrotation
		JOINT joint_19
		{
			OFFSET -29.032959 24.483521 -411.977966
			CHANNELS 3 Zrotation Yrotation Xrotation
			JOINT joint_20
			{
				OFFSET -30.530029 28.986328 -446.453018
				CHANNELS 3 Zrotation Yrotation Xrotation
				JOINT joint_21
				{
					OFFSET 170.330078 33.400757 -76.698997
					CHANNELS 3 Zrotation Yrotation Xrotation
					End Site
					{
						OFFSET 0.000000 0.000000 0.000000
					}
				}
			}
		}
	}
}
MOTION
Frames: 11
Frame Time: 0.016667
-2442.164062 749.117493 1075.744995 -10.219523 9.372362 4.745261 1.581814 -3.324128 1.414254 1.419499 0.578423 -0.188136 1.152609 -0.643698 0.264783 -2.117872 -12.773903 6.177685 0.000000 0.000000 0.000000 -5.148090 -4.231414 -4.959346 -6.707472 0.794968 -12.907472 -166.079988 -55.021968 -158.230277 0.000000 0.000000 0.000000 9.459024 12.017149 10.040118 26.329679 2.727844 17.440408 -178.860463 -53.461100 158.355348 0.000000 0.000000 0.000000 -2.778090 -19.272685 -10.096083 -5.004408 5.118407 -0.510773 -4.997254 8.062488 -1.651823 0.000000 0.000000 0.000000 4.028961 -15.230355 0.101507 5.990272 27.887443 -0.887646 4.432538 9.576764 -0.128832 0.000000 0.000000 0.000000 
-2438.990479 743.976013 1076.311035 -9.527886 8.901217 4.546748 1.575182 -3.002910 1.711819 1.290740 0.556814 -0.315195 1.007280 -0.622114 0.355808 -2.196193 -12.695917 6.298107 0.000000 0.000000 0.000000 -5.012594 -4.370025 -4.838241 -6.854861 0.669447 -12.488552 -166.136382 -55.676977 -157.620417 0.000000 0.000000 0.000000 9.135506 11.604502 9.933639 26.270269 2.385011 17.586399 -178.640216 -54.437623 157.956370 0.000000 0.000000 0.000000 -3.047604 -18.284055 -9.694579 -5.353262 5.036267 -0.393288 -5.337422 7.579854 -1.829891 0.000000 0.000000 0.000000 4.018691 -16.152336 1.081068 6.063213 30.374817 -1.081998 4.563172 10.890350 -0.381036 0.000000 0.000000 0.000000 
-2435.392822 739.051575 1076.687988 -8.965479 8.706348 4.388853 1.565668 -2.977396 1.699520 1.162935 0.527782 -0.323807 0.818429 -0.599495 0.364537 -2.290773 -12.602618 6.462798 0.000000 0.000000 0.000000 -4.983599 -4.540934 -4.642713 -6.917551 0.644096 -12.037458 -166.147056 -56.335870 -157.011400 0.000000 0.000000 0.000000 8.972822 11.491237 9.832389 26.332643 2.028113 18.116910 -178.413414 -55.009465 157.819550 0.000000 0.000000 0.000000 -3.254453 -17.389964 -9.386310 -5.672031 4.565500 -0.163978 -5.594339 7.265599 -1.963133 0.000000 0.000000 0.000000 4.035659 -17.111284 1.962308 6.133375 32.566758 -1.407376 4.693543 11.691007 -0.533907 0.000000 0.000000 0.000000 
-2431.643311 734.501953 1077.019043 -8.513775 8.675991 4.263833 1.565933 -3.098196 1.497940 1.036611 0.499299 -0.269684 0.605717 -0.581888 0.333249 -2.394003 -12.523529 6.665736 0.000000 0.000000 0.000000 -4.999942 -4.696582 -4.417758 -6.900588 0.681724 -11.570466 -166.123336 -56.965413 -156.479185 0.000000 0.000000 0.000000 8.905551 11.529054 9.731669 26.428065 1.693361 18.801875 -178.188962 -55.354073 157.845686 0.000000 0.000000 0.000000 -3.417299 -16.541759 -9.140831 -5.952590 3.805514 0.116710 -5.779553 7.118931 -2.056193 0.000000 0.000000 0.000000 4.067100 -18.047688 2.779630 6.199504 34.473494 -1.848411 4.821443 12.109648 -0.611875 0.000000 0.000000 0.000000 
-2428.142578 730.740051 1077.149048 -8.192746 8.674876 4.154632 1.567240 -3.162507 1.346072 0.944209 0.485182 -0.231357 0.452069 -0.577807 0.305638 -2.464595 -12.529120 6.825293 0.000000 0.000000 0.000000 -4.937009 -4.828806 -4.214403 -7.007306 0.653667 -11.240268 -166.129712 -57.366509 -155.961244 0.000000 0.000000 0.000000 8.870813 11.489558 9.596742 26.412962 1.444471 19.287266 -178.021091 -55.654758 158.015337 0.000000 0.000000 0.000000 -3.554418 -15.850461 -8.923252 -6.151660 3.177118 0.353751 -5.903402 6.966693 -2.121999 0.000000 0.000000 0.000000 4.073442 -18.774572 3.513118 6.245478 35.734625 -2.373451 4.900898 11.937718 -0.575245 0.000000 0.000000 0.000000 
-2425.095215 727.968689 1076.951050 -8.085609 8.667894 4.061271 1.581777 -3.090576 1.316077 0.922317 0.502154 -0.229547 0.408282 -0.594019 0.289175 -2.481703 -12.687024 6.907652 0.000000 0.000000 0.000000 -4.719769 -4.941019 -4.057713 -7.371780 0.511931 -11.136142 -166.203177 -57.383908 -155.398119 0.000000 0.000000 0.000000 8.869482 11.305508 9.414475 26.213259 1.330664 19.437247 -177.939680 -55.942630 158.419869 0.000000 0.000000 0.000000 -3.619516 -15.426190 -8.748824 -6.225590 2.920597 0.525841 -5.945308 6.687824 -2.158228 0.000000 0.000000 0.000000 4.068319 -19.214965 4.216622 6.315584 36.278781 -3.129555 4.913002 10.935913 -0.374727 0.000000 0.000000 0.000000 
-2422.295654 725.984192 1076.551025 -8.102461 8.695392 3.990945 1.594194 -2.982402 1.323579 0.934412 0.541386 -0.233323 0.421483 -0.620269 0.273081 -2.468890 -12.931510 6.947185 0.000000 0.000000 0.000000 -4.423453 -5.036416 -3.925160 -7.866097 0.304930 -11.162460 -166.302561 -57.162813 -154.839909 0.000000 0.000000 0.000000 8.899653 11.039530 9.197152 25.914397 1.301347 19.387935 -177.917090 -56.178457 158.968789 0.000000 0.000000 0.000000 -3.651542 -15.164102 -8.622808 -6.227673 2.804722 0.660840 -5.932034 6.372944 -2.172260 0.000000 0.000000 0.000000 4.034352 -19.452527 4.845293 6.376760 36.203180 -4.022139 4.830932 9.320543 -0.067233 0.000000 0.000000 0.000000 
-2419.531738 724.588501 1076.163940 -8.006182 8.737034 3.935729 1.538154 -2.904815 1.376737 0.909441 0.569531 -0.241818 0.433169 -0.632877 0.269229 -2.458233 -13.128150 6.969627 0.000000 0.000000 0.000000 -4.146559 -5.113929 -3.788837 -8.305364 0.053173 -11.203075 -166.380383 -56.955406 -154.376177 0.000000 0.000000 0.000000 8.897793 10.655003 8.953351 25.609393 1.273675 19.186283 -177.932972 -56.444420 159.372364 0.000000 0.000000 0.000000 -3.792089 -14.855726 -8.497981 -6.261836 2.547254 0.739963 -5.941366 6.148718 -2.191366 0.000000 0.000000 0.000000 3.898330 -19.547131 5.227684 6.314523 35.390898 -4.651649 4.614327 7.545974 0.237728 0.000000 0.000000 0.000000 
-2416.706055 723.715271 1075.875977 -7.684671 8.764813 3.894446 1.369798 -2.837736 1.512310 0.811950 0.559059 -0.276435 0.423701 -0.609923 0.283973 -2.462796 -13.238941 6.989905 0.000000 0.000000 0.000000 -3.919886 -5.204816 -3.622120 -8.657497 -0.258099 -11.243136 -166.426486 -56.839994 -153.988081 0.000000 0.000000 0.000000 8.826337 10.135429 8.660709 25.321727 1.224913 18.818040 -177.990625 -56.767672 159.536440 0.000000 0.000000 0.000000 -4.135159 -14.370541 -8.332564 -6.384026 1.982627 0.724356 -6.019769 6.099048 -2.231344 0.000000 0.000000 0.000000 3.584955 -19.455472 5.286229 6.032136 33.503795 -4.879647 4.190764 5.784236 0.474355 0.000000 0.000000 0.000000 
-2413.915283 723.430969 1075.599976 -7.272967 8.796084 3.839187 1.155250 -2.776915 1.749307 0.684612 0.523760 -0.346667 0.408629 -0.571160 0.312512 -2.469575 -13.303431 6.997269 0.000000 0.000000 0.000000 -3.716593 -5.284584 -3.448276 -8.945474 -0.605422 -11.304592 -166.454153 -56.740217 -153.697739 0.000000 0.000000 0.000000 8.723759 9.510469 8.328687 25.030203 1.161965 18.306183 -178.085534 -57.128471 159.559304 0.000000 0.000000 0.000000 -4.569232 -13.822505 -8.134114 -6.534606 1.270448 0.647376 -6.125135 6.163373 -2.276779 0.000000 0.000000 0.000000 3.185298 -19.151652 5.124857 5.619336 30.715396 -4.792008 3.699967 4.151400 0.656193 0.000000 0.000000 0.000000 
-2411.239990 723.740295 1075.296997 -6.888240 8.884067 3.739684 0.977360 -2.826657 2.041297 0.572046 0.503990 -0.417002 0.386878 -0.558231 0.342929 -2.478914 -13.300100 6.989247 0.000000 0.000000 0.000000 -3.553250 -5.267958 -3.303442 -9.056597 -0.904476 -11.337238 -166.453996 -56.683145 -153.660829 0.000000 0.000000 0.000000 8.635158 8.815738 8.013727 24.757566 1.054195 17.754150 -178.186061 -57.541111 159.448496 0.000000 0.000000 0.000000 -4.939294 -13.377601 -7.946888 -6.646749 0.619309 0.600773 -6.201163 6.241353 -2.308217 0.000000 0.000000 0.000000 2.878030 -18.759410 4.827065 5.259617 27.762725 -4.343878 3.385010 2.802801 0.835445 0.000000 0.000000 0.000000 
